<mxfile host="app.diagrams.net" modified="2022-11-24T03:12:56.970Z" agent="5.0 (Macintosh; Intel Mac OS X 10_15_7) AppleWebKit/537.36 (KHTML, like Gecko) Chrome/105.0.0.0 Safari/537.36" etag="hfZF0iz-dAuKBQPRHpRS" version="20.5.3" type="github">
  <diagram id="xo_CiO_Yl4N48_bS63rh" name="第 1 页">
    <mxGraphModel dx="946" dy="614" grid="0" gridSize="10" guides="1" tooltips="1" connect="1" arrows="1" fold="1" page="1" pageScale="1" pageWidth="1169" pageHeight="1654" math="0" shadow="0">
      <root>
        <mxCell id="0" />
        <mxCell id="1" parent="0" />
        <mxCell id="fHE2T1uiIEL0fMKhrEIc-2" value="" style="rounded=1;whiteSpace=wrap;html=1;fillColor=#f5f5f5;strokeColor=#666666;fontColor=#333333;" parent="1" vertex="1">
          <mxGeometry x="190" y="210" width="510" height="90" as="geometry" />
        </mxCell>
        <mxCell id="fHE2T1uiIEL0fMKhrEIc-3" value="ActionPlugin" style="rounded=1;whiteSpace=wrap;html=1;fillColor=#d5e8d4;strokeColor=#82b366;" parent="1" vertex="1">
          <mxGeometry x="220" y="225" width="120" height="60" as="geometry" />
        </mxCell>
        <mxCell id="fHE2T1uiIEL0fMKhrEIc-4" value="" style="rounded=1;whiteSpace=wrap;html=1;fillColor=#f5f5f5;fontColor=#333333;strokeColor=#666666;" parent="1" vertex="1">
          <mxGeometry x="190" y="350" width="510" height="140" as="geometry" />
        </mxCell>
        <mxCell id="fHE2T1uiIEL0fMKhrEIc-5" value="AnalysisPlugin" style="rounded=1;whiteSpace=wrap;html=1;fillColor=#f5f5f5;strokeColor=#666666;fontColor=#333333;" parent="1" vertex="1">
          <mxGeometry x="370" y="225" width="120" height="60" as="geometry" />
        </mxCell>
        <mxCell id="fHE2T1uiIEL0fMKhrEIc-7" value="...." style="text;html=1;strokeColor=none;fillColor=none;align=center;verticalAlign=middle;whiteSpace=wrap;rounded=0;" parent="1" vertex="1">
          <mxGeometry x="480" y="240" width="60" height="30" as="geometry" />
        </mxCell>
        <mxCell id="fHE2T1uiIEL0fMKhrEIc-8" value="plugin interface" style="text;html=1;strokeColor=none;fillColor=none;align=center;verticalAlign=middle;whiteSpace=wrap;rounded=0;" parent="1" vertex="1">
          <mxGeometry x="120" y="240" width="60" height="30" as="geometry" />
        </mxCell>
        <mxCell id="fHE2T1uiIEL0fMKhrEIc-9" value="CustomRestApi" style="rounded=1;whiteSpace=wrap;html=1;fillColor=#d5e8d4;strokeColor=#82b366;" parent="1" vertex="1">
          <mxGeometry x="220" y="390" width="120" height="60" as="geometry" />
        </mxCell>
        <mxCell id="fHE2T1uiIEL0fMKhrEIc-10" value="RepositoryPlugin" style="rounded=1;whiteSpace=wrap;html=1;fillColor=#ffe6cc;strokeColor=#d79b00;" parent="1" vertex="1">
          <mxGeometry x="540" y="225" width="120" height="60" as="geometry" />
        </mxCell>
        <mxCell id="fHE2T1uiIEL0fMKhrEIc-11" value="" style="endArrow=classic;html=1;rounded=0;entryX=0.5;entryY=1;entryDx=0;entryDy=0;" parent="1" source="fHE2T1uiIEL0fMKhrEIc-9" target="fHE2T1uiIEL0fMKhrEIc-3" edge="1">
          <mxGeometry width="50" height="50" relative="1" as="geometry">
            <mxPoint x="450" y="350" as="sourcePoint" />
            <mxPoint x="500" y="300" as="targetPoint" />
          </mxGeometry>
        </mxCell>
        <mxCell id="fHE2T1uiIEL0fMKhrEIc-12" value="AWS S3 Repository" style="rounded=1;whiteSpace=wrap;html=1;fillColor=#ffe6cc;strokeColor=#d79b00;" parent="1" vertex="1">
          <mxGeometry x="385" y="390" width="120" height="60" as="geometry" />
        </mxCell>
        <mxCell id="fHE2T1uiIEL0fMKhrEIc-13" value="Cube Repository" style="rounded=1;whiteSpace=wrap;html=1;fillColor=#ffe6cc;strokeColor=#d79b00;" parent="1" vertex="1">
          <mxGeometry x="540" y="390" width="120" height="60" as="geometry" />
        </mxCell>
        <mxCell id="fHE2T1uiIEL0fMKhrEIc-14" value="" style="endArrow=classic;html=1;rounded=0;edgeStyle=orthogonalEdgeStyle;entryX=0.25;entryY=1;entryDx=0;entryDy=0;exitX=0.45;exitY=-0.033;exitDx=0;exitDy=0;exitPerimeter=0;" parent="1" source="fHE2T1uiIEL0fMKhrEIc-12" target="fHE2T1uiIEL0fMKhrEIc-10" edge="1">
          <mxGeometry width="50" height="50" relative="1" as="geometry">
            <mxPoint x="440" y="385" as="sourcePoint" />
            <mxPoint x="500" y="340" as="targetPoint" />
            <Array as="points">
              <mxPoint x="440" y="388" />
              <mxPoint x="440" y="330" />
              <mxPoint x="570" y="330" />
            </Array>
          </mxGeometry>
        </mxCell>
        <mxCell id="fHE2T1uiIEL0fMKhrEIc-15" value="" style="endArrow=classic;html=1;rounded=0;" parent="1" edge="1">
          <mxGeometry width="50" height="50" relative="1" as="geometry">
            <mxPoint x="600" y="390" as="sourcePoint" />
            <mxPoint x="599.5" y="285" as="targetPoint" />
          </mxGeometry>
        </mxCell>
        <mxCell id="fHE2T1uiIEL0fMKhrEIc-16" value="&amp;nbsp; plugin service" style="text;html=1;strokeColor=none;fillColor=none;align=center;verticalAlign=middle;whiteSpace=wrap;rounded=0;" parent="1" vertex="1">
          <mxGeometry x="120" y="400" width="60" height="30" as="geometry" />
        </mxCell>
        <mxCell id="_94Ime-4hOuovqoKaUaG-1" value="" style="rounded=1;whiteSpace=wrap;html=1;fillColor=#f5f5f5;fontColor=#333333;strokeColor=#666666;" parent="1" vertex="1">
          <mxGeometry x="141" y="585" width="172" height="106" as="geometry" />
        </mxCell>
        <mxCell id="_94Ime-4hOuovqoKaUaG-2" value="analysis-ik" style="text;html=1;strokeColor=none;fillColor=none;align=center;verticalAlign=middle;whiteSpace=wrap;rounded=0;" parent="1" vertex="1">
          <mxGeometry x="190" y="581" width="60" height="30" as="geometry" />
        </mxCell>
        <mxCell id="_94Ime-4hOuovqoKaUaG-3" value="AnalysisPlugin" style="rounded=1;whiteSpace=wrap;html=1;" parent="1" vertex="1">
          <mxGeometry x="165" y="614" width="120" height="60" as="geometry" />
        </mxCell>
        <mxCell id="_94Ime-4hOuovqoKaUaG-4" value="" style="rounded=1;whiteSpace=wrap;html=1;fillColor=#f5f5f5;fontColor=#333333;strokeColor=#666666;" parent="1" vertex="1">
          <mxGeometry x="361" y="585" width="172" height="106" as="geometry" />
        </mxCell>
        <mxCell id="_94Ime-4hOuovqoKaUaG-5" value="analysis-pinyin" style="text;html=1;strokeColor=none;fillColor=none;align=center;verticalAlign=middle;whiteSpace=wrap;rounded=0;" parent="1" vertex="1">
          <mxGeometry x="398" y="583" width="102" height="30" as="geometry" />
        </mxCell>
        <mxCell id="_94Ime-4hOuovqoKaUaG-6" value="AnalysisPlugin" style="rounded=1;whiteSpace=wrap;html=1;" parent="1" vertex="1">
          <mxGeometry x="385" y="614" width="120" height="60" as="geometry" />
        </mxCell>
        <mxCell id="_94Ime-4hOuovqoKaUaG-7" value="" style="rounded=1;whiteSpace=wrap;html=1;fillColor=#f5f5f5;fontColor=#333333;strokeColor=#666666;" parent="1" vertex="1">
          <mxGeometry x="139" y="725" width="172" height="106" as="geometry" />
        </mxCell>
        <mxCell id="_94Ime-4hOuovqoKaUaG-8" value="analysis-hanlp" style="text;html=1;strokeColor=none;fillColor=none;align=center;verticalAlign=middle;whiteSpace=wrap;rounded=0;" parent="1" vertex="1">
          <mxGeometry x="177" y="725" width="89" height="30" as="geometry" />
        </mxCell>
        <mxCell id="_94Ime-4hOuovqoKaUaG-9" value="AnalysisPlugin" style="rounded=1;whiteSpace=wrap;html=1;" parent="1" vertex="1">
          <mxGeometry x="163" y="754" width="120" height="60" as="geometry" />
        </mxCell>
        <mxCell id="_94Ime-4hOuovqoKaUaG-10" value="" style="rounded=1;whiteSpace=wrap;html=1;fillColor=#f5f5f5;fontColor=#333333;strokeColor=#666666;" parent="1" vertex="1">
          <mxGeometry x="131" y="928" width="322" height="106" as="geometry" />
        </mxCell>
        <mxCell id="_94Ime-4hOuovqoKaUaG-11" value="repository-s3" style="text;html=1;strokeColor=none;fillColor=none;align=center;verticalAlign=middle;whiteSpace=wrap;rounded=0;" parent="1" vertex="1">
          <mxGeometry x="254" y="925" width="81" height="30" as="geometry" />
        </mxCell>
        <mxCell id="_94Ime-4hOuovqoKaUaG-12" value="RepositoryPlugin" style="rounded=1;whiteSpace=wrap;html=1;" parent="1" vertex="1">
          <mxGeometry x="155" y="957" width="120" height="60" as="geometry" />
        </mxCell>
        <mxCell id="_94Ime-4hOuovqoKaUaG-13" value="ReloadalePlugin" style="rounded=1;whiteSpace=wrap;html=1;" parent="1" vertex="1">
          <mxGeometry x="305" y="959" width="120" height="60" as="geometry" />
        </mxCell>
        <mxCell id="_94Ime-4hOuovqoKaUaG-14" value="" style="rounded=1;whiteSpace=wrap;html=1;fillColor=#f5f5f5;fontColor=#333333;strokeColor=#666666;" parent="1" vertex="1">
          <mxGeometry x="131" y="1060" width="322" height="106" as="geometry" />
        </mxCell>
        <mxCell id="_94Ime-4hOuovqoKaUaG-15" value="repository-zure" style="text;html=1;strokeColor=none;fillColor=none;align=center;verticalAlign=middle;whiteSpace=wrap;rounded=0;" parent="1" vertex="1">
          <mxGeometry x="246" y="1061" width="98" height="30" as="geometry" />
        </mxCell>
        <mxCell id="_94Ime-4hOuovqoKaUaG-16" value="RepositoryPlugin" style="rounded=1;whiteSpace=wrap;html=1;" parent="1" vertex="1">
          <mxGeometry x="155" y="1089" width="120" height="60" as="geometry" />
        </mxCell>
        <mxCell id="_94Ime-4hOuovqoKaUaG-17" value="ReloadalePlugin" style="rounded=1;whiteSpace=wrap;html=1;" parent="1" vertex="1">
          <mxGeometry x="305" y="1091" width="120" height="60" as="geometry" />
        </mxCell>
        <mxCell id="_94Ime-4hOuovqoKaUaG-18" value="" style="rounded=1;whiteSpace=wrap;html=1;fillColor=#d5e8d4;strokeColor=#82b366;" parent="1" vertex="1">
          <mxGeometry x="502" y="1061" width="322" height="106" as="geometry" />
        </mxCell>
        <mxCell id="_94Ime-4hOuovqoKaUaG-19" value="RepositoryPlugin" style="rounded=1;whiteSpace=wrap;html=1;" parent="1" vertex="1">
          <mxGeometry x="524" y="1086" width="120" height="60" as="geometry" />
        </mxCell>
        <mxCell id="_94Ime-4hOuovqoKaUaG-20" value="ReloadalePlugin" style="rounded=1;whiteSpace=wrap;html=1;" parent="1" vertex="1">
          <mxGeometry x="674" y="1088" width="120" height="60" as="geometry" />
        </mxCell>
        <mxCell id="_94Ime-4hOuovqoKaUaG-21" value="repository-cube" style="text;html=1;strokeColor=none;fillColor=none;align=center;verticalAlign=middle;whiteSpace=wrap;rounded=0;" parent="1" vertex="1">
          <mxGeometry x="607" y="1060" width="98" height="30" as="geometry" />
        </mxCell>
        <mxCell id="_94Ime-4hOuovqoKaUaG-22" value="" style="rounded=1;whiteSpace=wrap;html=1;fillColor=#f5f5f5;fontColor=#333333;strokeColor=#666666;" parent="1" vertex="1">
          <mxGeometry x="502" y="928" width="172" height="106" as="geometry" />
        </mxCell>
        <mxCell id="_94Ime-4hOuovqoKaUaG-23" value="repository-hdfs" style="text;html=1;strokeColor=none;fillColor=none;align=center;verticalAlign=middle;whiteSpace=wrap;rounded=0;" parent="1" vertex="1">
          <mxGeometry x="536" y="925" width="93" height="30" as="geometry" />
        </mxCell>
        <mxCell id="_94Ime-4hOuovqoKaUaG-24" value="RepositoryPlugin" style="rounded=1;whiteSpace=wrap;html=1;" parent="1" vertex="1">
          <mxGeometry x="526" y="957" width="120" height="60" as="geometry" />
        </mxCell>
        <mxCell id="_94Ime-4hOuovqoKaUaG-25" value="" style="rounded=1;whiteSpace=wrap;html=1;fillColor=#d5e8d4;strokeColor=#82b366;" parent="1" vertex="1">
          <mxGeometry x="359" y="727" width="172" height="106" as="geometry" />
        </mxCell>
        <mxCell id="_94Ime-4hOuovqoKaUaG-26" value="dynamic-synonym" style="text;html=1;strokeColor=none;fillColor=none;align=center;verticalAlign=middle;whiteSpace=wrap;rounded=0;" parent="1" vertex="1">
          <mxGeometry x="397" y="727" width="103" height="30" as="geometry" />
        </mxCell>
        <mxCell id="_94Ime-4hOuovqoKaUaG-27" value="AnalysisPlugin" style="rounded=1;whiteSpace=wrap;html=1;" parent="1" vertex="1">
          <mxGeometry x="383" y="756" width="120" height="60" as="geometry" />
        </mxCell>
        <mxCell id="ndxp9ri9iPsZWDE7ssAo-4" value="" style="rounded=1;whiteSpace=wrap;html=1;fillColor=#f5f5f5;fontColor=#333333;strokeColor=#666666;" vertex="1" parent="1">
          <mxGeometry x="133" y="1283" width="322" height="106" as="geometry" />
        </mxCell>
        <mxCell id="ndxp9ri9iPsZWDE7ssAo-5" value="aws-sql" style="text;html=1;strokeColor=none;fillColor=none;align=center;verticalAlign=middle;whiteSpace=wrap;rounded=0;" vertex="1" parent="1">
          <mxGeometry x="256" y="1280" width="81" height="30" as="geometry" />
        </mxCell>
        <mxCell id="ndxp9ri9iPsZWDE7ssAo-6" value="ActionPlugin" style="rounded=1;whiteSpace=wrap;html=1;" vertex="1" parent="1">
          <mxGeometry x="157" y="1312" width="120" height="60" as="geometry" />
        </mxCell>
        <mxCell id="ndxp9ri9iPsZWDE7ssAo-7" value="ScriptPlugin" style="rounded=1;whiteSpace=wrap;html=1;" vertex="1" parent="1">
          <mxGeometry x="307" y="1314" width="120" height="60" as="geometry" />
        </mxCell>
        <mxCell id="ndxp9ri9iPsZWDE7ssAo-8" value="" style="rounded=1;whiteSpace=wrap;html=1;fillColor=#f5f5f5;fontColor=#333333;strokeColor=#666666;" vertex="1" parent="1">
          <mxGeometry x="504" y="1283" width="172" height="106" as="geometry" />
        </mxCell>
        <mxCell id="ndxp9ri9iPsZWDE7ssAo-9" value="sql" style="text;html=1;strokeColor=none;fillColor=none;align=center;verticalAlign=middle;whiteSpace=wrap;rounded=0;" vertex="1" parent="1">
          <mxGeometry x="538" y="1280" width="93" height="30" as="geometry" />
        </mxCell>
        <mxCell id="ndxp9ri9iPsZWDE7ssAo-10" value="ActionPlugin" style="rounded=1;whiteSpace=wrap;html=1;" vertex="1" parent="1">
          <mxGeometry x="528" y="1312" width="120" height="60" as="geometry" />
        </mxCell>
        <mxCell id="ndxp9ri9iPsZWDE7ssAo-15" value="" style="rounded=1;whiteSpace=wrap;html=1;fillColor=#f5f5f5;fontColor=#333333;strokeColor=#666666;" vertex="1" parent="1">
          <mxGeometry x="139" y="1752.25" width="739.5" height="115.5" as="geometry" />
        </mxCell>
        <mxCell id="ndxp9ri9iPsZWDE7ssAo-16" value="aws-knn" style="text;html=1;strokeColor=none;fillColor=none;align=center;verticalAlign=middle;whiteSpace=wrap;rounded=0;" vertex="1" parent="1">
          <mxGeometry x="468.25" y="1750" width="81" height="30" as="geometry" />
        </mxCell>
        <mxCell id="ndxp9ri9iPsZWDE7ssAo-17" value="MapperPlugin" style="rounded=1;whiteSpace=wrap;html=1;" vertex="1" parent="1">
          <mxGeometry x="157" y="1780" width="120" height="60" as="geometry" />
        </mxCell>
        <mxCell id="ndxp9ri9iPsZWDE7ssAo-18" value="SearchPlugin" style="rounded=1;whiteSpace=wrap;html=1;" vertex="1" parent="1">
          <mxGeometry x="298" y="1780" width="120" height="60" as="geometry" />
        </mxCell>
        <mxCell id="ndxp9ri9iPsZWDE7ssAo-22" value="ActionPlugin" style="rounded=1;whiteSpace=wrap;html=1;" vertex="1" parent="1">
          <mxGeometry x="440" y="1780" width="120" height="60" as="geometry" />
        </mxCell>
        <mxCell id="ndxp9ri9iPsZWDE7ssAo-23" value="EnginePlugin" style="rounded=1;whiteSpace=wrap;html=1;" vertex="1" parent="1">
          <mxGeometry x="585" y="1780" width="120" height="60" as="geometry" />
        </mxCell>
        <mxCell id="ndxp9ri9iPsZWDE7ssAo-24" value="ScriptPlugin" style="rounded=1;whiteSpace=wrap;html=1;" vertex="1" parent="1">
          <mxGeometry x="730" y="1780" width="120" height="60" as="geometry" />
        </mxCell>
        <mxCell id="ndxp9ri9iPsZWDE7ssAo-25" value="" style="rounded=1;whiteSpace=wrap;html=1;fillColor=#f5f5f5;fontColor=#333333;strokeColor=#666666;" vertex="1" parent="1">
          <mxGeometry x="139" y="1942.25" width="451" height="107.75" as="geometry" />
        </mxCell>
        <mxCell id="ndxp9ri9iPsZWDE7ssAo-26" value="elasticknn" style="text;html=1;strokeColor=none;fillColor=none;align=center;verticalAlign=middle;whiteSpace=wrap;rounded=0;" vertex="1" parent="1">
          <mxGeometry x="313" y="1940" width="81" height="30" as="geometry" />
        </mxCell>
        <mxCell id="ndxp9ri9iPsZWDE7ssAo-27" value="MapperPlugin" style="rounded=1;whiteSpace=wrap;html=1;" vertex="1" parent="1">
          <mxGeometry x="157" y="1970" width="120" height="60" as="geometry" />
        </mxCell>
        <mxCell id="ndxp9ri9iPsZWDE7ssAo-28" value="SearchPlugin" style="rounded=1;whiteSpace=wrap;html=1;" vertex="1" parent="1">
          <mxGeometry x="298" y="1970" width="120" height="60" as="geometry" />
        </mxCell>
        <mxCell id="ndxp9ri9iPsZWDE7ssAo-30" value="EnginePlugin" style="rounded=1;whiteSpace=wrap;html=1;" vertex="1" parent="1">
          <mxGeometry x="440" y="1970" width="120" height="60" as="geometry" />
        </mxCell>
        <mxCell id="ndxp9ri9iPsZWDE7ssAo-32" value="" style="rounded=1;whiteSpace=wrap;html=1;fillColor=#f5f5f5;fontColor=#333333;strokeColor=#666666;" vertex="1" parent="1">
          <mxGeometry x="135" y="1470" width="174" height="116" as="geometry" />
        </mxCell>
        <mxCell id="ndxp9ri9iPsZWDE7ssAo-33" value="ingest-attachment" style="text;html=1;strokeColor=none;fillColor=none;align=center;verticalAlign=middle;whiteSpace=wrap;rounded=0;" vertex="1" parent="1">
          <mxGeometry x="171" y="1472" width="105" height="30" as="geometry" />
        </mxCell>
        <mxCell id="ndxp9ri9iPsZWDE7ssAo-34" value="IngestPlugin" style="rounded=1;whiteSpace=wrap;html=1;" vertex="1" parent="1">
          <mxGeometry x="161" y="1504" width="120" height="60" as="geometry" />
        </mxCell>
        <mxCell id="ndxp9ri9iPsZWDE7ssAo-41" value="" style="rounded=1;whiteSpace=wrap;html=1;fillColor=#f5f5f5;fontColor=#333333;strokeColor=#666666;" vertex="1" parent="1">
          <mxGeometry x="134" y="2129.25" width="301" height="104.75" as="geometry" />
        </mxCell>
        <mxCell id="ndxp9ri9iPsZWDE7ssAo-42" value="discovery-ec2" style="text;html=1;strokeColor=none;fillColor=none;align=center;verticalAlign=middle;whiteSpace=wrap;rounded=0;" vertex="1" parent="1">
          <mxGeometry x="248" y="2125" width="81" height="30" as="geometry" />
        </mxCell>
        <mxCell id="ndxp9ri9iPsZWDE7ssAo-43" value="DiscoveryPlugin" style="rounded=1;whiteSpace=wrap;html=1;" vertex="1" parent="1">
          <mxGeometry x="152" y="2157" width="120" height="60" as="geometry" />
        </mxCell>
        <mxCell id="ndxp9ri9iPsZWDE7ssAo-44" value="ReloadablePlugin" style="rounded=1;whiteSpace=wrap;html=1;" vertex="1" parent="1">
          <mxGeometry x="293" y="2157" width="120" height="60" as="geometry" />
        </mxCell>
        <mxCell id="ndxp9ri9iPsZWDE7ssAo-46" value="" style="rounded=1;whiteSpace=wrap;html=1;fillColor=#f5f5f5;fontColor=#333333;strokeColor=#666666;" vertex="1" parent="1">
          <mxGeometry x="472" y="2131.38" width="167" height="100.62" as="geometry" />
        </mxCell>
        <mxCell id="ndxp9ri9iPsZWDE7ssAo-47" value="discovery-azure" style="text;html=1;strokeColor=none;fillColor=none;align=center;verticalAlign=middle;whiteSpace=wrap;rounded=0;" vertex="1" parent="1">
          <mxGeometry x="474" y="2131.38" width="133" height="30" as="geometry" />
        </mxCell>
        <mxCell id="ndxp9ri9iPsZWDE7ssAo-48" value="DiscoveryPlugin" style="rounded=1;whiteSpace=wrap;html=1;" vertex="1" parent="1">
          <mxGeometry x="490" y="2159.13" width="120" height="60" as="geometry" />
        </mxCell>
        <mxCell id="ndxp9ri9iPsZWDE7ssAo-50" value="" style="rounded=1;whiteSpace=wrap;html=1;fillColor=#f5f5f5;fontColor=#333333;strokeColor=#666666;" vertex="1" parent="1">
          <mxGeometry x="125" y="2324.25" width="600" height="107.75" as="geometry" />
        </mxCell>
        <mxCell id="ndxp9ri9iPsZWDE7ssAo-51" value="cross-cluster-replication" style="text;html=1;strokeColor=none;fillColor=none;align=center;verticalAlign=middle;whiteSpace=wrap;rounded=0;" vertex="1" parent="1">
          <mxGeometry x="388" y="2322" width="147.25" height="30" as="geometry" />
        </mxCell>
        <mxCell id="ndxp9ri9iPsZWDE7ssAo-52" value="ActionPlugin" style="rounded=1;whiteSpace=wrap;html=1;" vertex="1" parent="1">
          <mxGeometry x="143" y="2352" width="120" height="60" as="geometry" />
        </mxCell>
        <mxCell id="ndxp9ri9iPsZWDE7ssAo-53" value="RepositoryPlugin" style="rounded=1;whiteSpace=wrap;html=1;" vertex="1" parent="1">
          <mxGeometry x="284" y="2352" width="120" height="60" as="geometry" />
        </mxCell>
        <mxCell id="ndxp9ri9iPsZWDE7ssAo-54" value="EnginePlugin" style="rounded=1;whiteSpace=wrap;html=1;" vertex="1" parent="1">
          <mxGeometry x="426" y="2352" width="120" height="60" as="geometry" />
        </mxCell>
        <mxCell id="ndxp9ri9iPsZWDE7ssAo-55" value="PersistentTaskPlugin" style="rounded=1;whiteSpace=wrap;html=1;" vertex="1" parent="1">
          <mxGeometry x="571" y="2352" width="120" height="60" as="geometry" />
        </mxCell>
        <mxCell id="ndxp9ri9iPsZWDE7ssAo-58" value="" style="rounded=1;whiteSpace=wrap;html=1;fillColor=#f5f5f5;fontColor=#333333;strokeColor=#666666;" vertex="1" parent="1">
          <mxGeometry x="120" y="2465.25" width="735" height="105.75" as="geometry" />
        </mxCell>
        <mxCell id="ndxp9ri9iPsZWDE7ssAo-59" value="ccr" style="text;html=1;strokeColor=none;fillColor=none;align=center;verticalAlign=middle;whiteSpace=wrap;rounded=0;" vertex="1" parent="1">
          <mxGeometry x="383" y="2463" width="147.25" height="30" as="geometry" />
        </mxCell>
        <mxCell id="ndxp9ri9iPsZWDE7ssAo-60" value="ActionPlugin" style="rounded=1;whiteSpace=wrap;html=1;" vertex="1" parent="1">
          <mxGeometry x="138" y="2493" width="120" height="60" as="geometry" />
        </mxCell>
        <mxCell id="ndxp9ri9iPsZWDE7ssAo-61" value="RepositoryPlugin" style="rounded=1;whiteSpace=wrap;html=1;" vertex="1" parent="1">
          <mxGeometry x="279" y="2493" width="120" height="60" as="geometry" />
        </mxCell>
        <mxCell id="ndxp9ri9iPsZWDE7ssAo-62" value="EnginePlugin" style="rounded=1;whiteSpace=wrap;html=1;" vertex="1" parent="1">
          <mxGeometry x="421" y="2493" width="120" height="60" as="geometry" />
        </mxCell>
        <mxCell id="ndxp9ri9iPsZWDE7ssAo-63" value="PersistentTaskPlugin" style="rounded=1;whiteSpace=wrap;html=1;" vertex="1" parent="1">
          <mxGeometry x="566" y="2493" width="120" height="60" as="geometry" />
        </mxCell>
        <mxCell id="ndxp9ri9iPsZWDE7ssAo-64" value="ClusterPlugin" style="rounded=1;whiteSpace=wrap;html=1;" vertex="1" parent="1">
          <mxGeometry x="708" y="2493.63" width="120" height="60" as="geometry" />
        </mxCell>
      </root>
    </mxGraphModel>
  </diagram>
</mxfile>
